<svg version="1.0" xmlns="http://www.w3.org/2000/svg"
 width="1280.000000pt" height="955.000000pt" viewBox="0 0 1280.000000 955.000000"
 preserveAspectRatio="xMidYMid meet">
<metadata>
Created by potrace 1.15, written by Peter Selinger 2001-2017
</metadata>
<g transform="translate(0.000000,955.000000) scale(0.100000,-0.100000)" stroke="none">
<path d="M1132 8417 l-1134 -1134 224 -254 c123 -140 1040 -1183 2038 -2319
999 -1136 2336 -2658 2973 -3383 637 -724 1162 -1317 1167 -1317 5 0 269 296
587 658 317 361 1653 1881 2968 3377 1315 1496 2493 2837 2619 2979 l227 259
-33 32 c-18 18 -488 477 -1043 1021 -556 544 -1062 1040 -1126 1102 l-116 112
-4109 0 -4109 0 -1133 -1133z m2688 430 c-427 -193 -706 -381 -991 -666 -244
-245 -397 -464 -535 -764 -136 -296 -202 -603 -213 -988 l-6 -226 -470 534
c-259 294 -470 539 -470 544 0 5 333 362 740 794 l740 784 615 0 c466 0 609
-3 590 -12z m5554 -147 c-1 -139 -4 -163 -27 -236 -54 -163 -168 -289 -313
-347 l-42 -16 -44 67 c-65 97 -190 252 -352 434 -77 88 -161 182 -184 209
l-44 49 504 -2 503 -3 -1 -155z m-2794 96 c559 -76 1039 -286 1362 -594 274
-262 439 -586 495 -972 l8 -55 938 -3 937 -2 0 825 c0 454 3 825 8 824 10 -1
1376 -1520 1380 -1534 3 -13 -1534 -1766 -1553 -1771 -5 -2 -37 47 -70 108
-187 349 -403 561 -743 732 -324 162 -767 274 -1307 329 -98 11 -184 12 -350
5 -316 -13 -1459 -12 -1730 1 -726 35 -1146 94 -1363 192 -121 54 -339 218
-481 359 -190 190 -281 363 -281 536 0 145 59 265 196 394 167 158 406 285
769 408 375 127 703 200 1070 236 106 10 596 -2 715 -18z m-3714 -3432 c362
-136 1010 -240 1784 -284 96 -5 535 -21 975 -35 1276 -40 1770 -68 2213 -126
601 -78 953 -207 1060 -387 38 -66 38 -155 -1 -229 -33 -65 -121 -155 -204
-211 -413 -279 -1212 -435 -2153 -420 l-265 4 -105 105 c-527 529 -1109 744
-1590 589 -158 -51 -319 -151 -476 -295 l-86 -78 -23 24 c-42 45 -1205 1369
-1201 1369 2 0 35 -12 72 -26z m5243 -2181 c-67 -85 -1684 -1913 -1689 -1911
-12 4 -1610 1822 -1606 1826 2 2 78 -4 167 -12 613 -59 1037 -79 1629 -80 526
-1 653 4 935 40 222 28 443 83 535 134 44 24 46 24 29 3z"/>
</g>
</svg>
